<svg xmlns="http://www.w3.org/2000/svg" viewBox="0 0 400 400"><rect width="400" height="400" fill="#fff"/><circle cx="150" cy="90" r="26" fill="none" stroke="#71717a" stroke-width="10"/><path d="M150 116 q-10 30 0 44" stroke="#71717a" stroke-width="10" fill="none"/><ellipse cx="150" cy="240" rx="75" ry="85" fill="#f5c518" stroke="#1c1c1c" stroke-width="6"/><circle cx="128" cy="220" r="10" fill="#1c1c1c"/><circle cx="172" cy="220" r="10" fill="#1c1c1c"/><path d="M125 265 q25 22 50 0" stroke="#1c1c1c" stroke-width="6" fill="none" stroke-linecap="round"/><path d="M95 180 L60 150 M205 180 L240 150" stroke="#1c1c1c" stroke-width="8" stroke-linecap="round"/><circle cx="290" cy="90" r="26" fill="none" stroke="#71717a" stroke-width="10"/><path d="M290 116 q10 30 0 44" stroke="#71717a" stroke-width="10" fill="none"/><rect x="230" y="160" width="120" height="150" rx="18" fill="#1c1c1c"/><rect x="252" y="185" width="76" height="76" rx="6" fill="#fff"/><rect x="262" y="195" width="16" height="16" fill="#1c1c1c"/><rect x="302" y="195" width="16" height="16" fill="#1c1c1c"/><rect x="262" y="235" width="16" height="16" fill="#1c1c1c"/><rect x="288" y="221" width="10" height="10" fill="#1c1c1c"/><text x="290" y="292" text-anchor="middle" font-family="Arial" font-weight="bold" font-size="22" fill="#f5c518">STING</text></svg>
